<?xml version="1.0" encoding="utf-8"?>
<!-- Generator: Adobe Illustrator 24.2.1, SVG Export Plug-In . SVG Version: 6.00 Build 0)  -->
<svg version="1.1" id="Capa_1" xmlns="http://www.w3.org/2000/svg" xmlns:xlink="http://www.w3.org/1999/xlink" x="0px" y="0px"
	 viewBox="0 0 417 378" style="enable-background:new 0 0 417 378;" xml:space="preserve">
<style type="text/css">
	.st0{fill:#A9CCBA;}
	.st1{fill:#F0C9CF;}
	.st2{fill:#23254F;}
	.st3{fill:#D783A7;}
	.st4{fill:#99A3CA;}
	.st5{fill:#7988B8;}
	.st6{fill:#5F72B6;}
	.st7{opacity:0.25;fill:#FFFFFF;enable-background:new    ;}
	.st8{fill:#FFFFFF;}
	.st9{fill:none;stroke:#23254F;stroke-width:0.5252;stroke-linecap:round;stroke-linejoin:round;stroke-miterlimit:10;}
	.st10{fill:#1A1B37;}
	.st11{fill:none;stroke:#C95E8B;stroke-width:0.5252;stroke-linecap:round;stroke-miterlimit:9;}
	.st12{fill:#020203;}
	.st13{fill:none;stroke:#23254F;stroke-width:0.7879;stroke-linecap:round;stroke-linejoin:round;stroke-miterlimit:10;}
	.st14{fill:#EAB7C0;}
	.st15{fill:#293551;}
	.st16{fill:#364380;}
	.st17{fill:#465CA7;}
	.st18{fill:none;stroke:#96A2D2;stroke-width:2.101;stroke-linecap:round;stroke-linejoin:round;stroke-miterlimit:10;}
	.st19{fill:#625676;}
	.st20{fill:#FAB21E;}
	.st21{fill:#EB5858;}
</style>
<path class="st0" d="M43.8,106.1c0,0,144.4-128.9,210.5-80.7s11.9,99.9,40.6,100.9c28.7,1,86.4-51.6,111.8,5s-78.6,124.8-60,127.7
	c18.5,2.9,49.8-7.3,49.8,13.9c0,21.3-88.5,105.6-148.3,99.8s26.5-63.4-8.5-58.2s-94.7,86.2-142.1,37s41.8-140.1,2.2-127.3
	C34.7,245.4-42,189.4,43.8,106.1z"/>
<g>
	<polyline class="st1" points="258.3,336.6 260.5,353.3 255.6,361.6 244,357 240.3,340.8 	"/>
	<path class="st2" d="M285.4,364.9l-25.5-14.7l-4.8,6.8H244l-1.2,10.3h42C286,367.3,286.5,365.6,285.4,364.9z"/>
	<polyline class="st1" points="167.8,336.6 164.5,353.3 169.4,361.6 181,357 185.7,340.8 	"/>
	<path class="st1" d="M271,174.5l-19.1,25.1c-0.7,0.9-1.1,1.9-1.1,3l-1.6,22.3l-6.8-46.9l9.6-16.2l-1-3.2l-3.6-12.1l18.8-7.1
		l1.1,3.4l6,17.7C274.9,165.3,274,170.5,271,174.5z"/>
	<polygon class="st3" points="267.3,142.8 251,158.6 247.4,146.5 266.2,139.4 	"/>
	<polygon class="st4" points="261.8,340.9 238.7,344.7 220.6,266.8 216.1,247.5 216,247.1 186.6,346.6 163.5,340.3 185,201.9 
		186.6,191.4 245.1,190.6 245.8,196.3 	"/>
	<polygon class="st5" points="245.8,196.3 185,201.9 185.8,196.3 186.6,191.4 245.1,190.6 245.7,195.3 	"/>
	<path class="st2" d="M245.7,195.3c-12.7,1.8-50.8,1.2-59.8,1l0.8-4.8l58.5-0.9L245.7,195.3z"/>
	<path class="st6" d="M269.1,138.3l-13.5,8.1l-1.7,1l-4.1,2.4v0.1l-0.1,1.7l-0.6,14.2l-0.1,1.7l-0.6,14.2l-0.1,1.7l-0.2,4.5
		c0,0,2.4,2.7,1.7,5c-0.2,0.6-4.2,1-10.2,1.3c-0.6,0-1.1,0-1.7,0.1c-4.1,0.2-9.1,0.3-14.2,0.3c-0.6,0-1.2,0-1.7,0
		c-4.7,0-9.6,0-14.2-0.1c-0.6,0-1.2,0-1.7,0c-5.4-0.1-10.4-0.3-14.2-0.6c-0.6,0-1.2-0.1-1.7-0.1c-3.9-0.4-6.2-0.9-6.2-1.5
		c0.3-3.2,2.3-5.4,2.3-5.4l0-3.4l0-1.7l0-14.2l0-1.7l0-14.2v-0.9l-1.4-0.8l-9-5.3l-1.7-1l-11.3-6.6l0.6-1.4l0.8-1.7l6.4-14.2
		l0.8-1.7l2.7-6l0.6-1.2c0.4-0.8,0.8-1.6,1.2-2.4c0.9-1.6,1.9-3.2,3.1-4.6c0.5-0.6,1-1.2,1.5-1.7c2.7-3,6-5.5,9.6-7.3
		c0.6-0.3,1.2-0.6,1.7-0.8c2.5-1.1,5.2-1.9,7.9-2.3l4.2-0.6l2.1-0.3l1.7-0.3l0.1,0l14.1,1.2l1.7,0.1l4.3,0.4l3.6,0.5
		c0.2,0,0.5,0.1,0.7,0.1c1.9,0.3,3.8,0.8,5.6,1.4c0.6,0.2,1.2,0.4,1.7,0.7c4.1,1.7,7.8,4.1,10.9,7.3c0.6,0.6,1.1,1.1,1.6,1.7
		c0.6,0.7,1.2,1.4,1.7,2.2c0.6,0.9,1.2,1.8,1.7,2.7c0.6,1,1.1,2,1.6,3.1l2.8,6.2l0.8,1.7l6.4,14.2l0.8,1.7L269.1,138.3z"/>
	<g>
		<path class="st7" d="M267.2,134h-11.6v-14.2h5.2L260,118h-4.4v-9.3c-0.5-0.9-1.1-1.8-1.7-2.7v12h-14.2v-14.2h12.5
			c-0.5-0.6-1.1-1.2-1.6-1.7h-10.9v-7.3c-0.6-0.2-1.2-0.5-1.7-0.7v7.9h-14.2V91.7l-1.7-0.1V102h-14.2V90.4l-1.7,0.3V102h-14.2V94
			c-0.6,0.3-1.2,0.5-1.7,0.8v7.3h-9.6c-0.5,0.6-1,1.1-1.5,1.7h11.1V118h-14.3v-9.6c-0.4,0.8-0.8,1.6-1.2,2.4L174,112v6h-2.7
			l-0.8,1.7h3.5V134h-9.9l-0.8,1.7H174v7.9l1.7,1v-9H190v14.2h-5.2l1.4,0.8v0.9h3.8v14.2h-3.8l0,1.7h3.8v14.2h-3.9l0,1.7h3.9v10.2
			c0.5,0,1.1,0.1,1.7,0.1v-10.4H206v11c0.6,0,1.2,0,1.7,0v-11h14.2v11.1c0.6,0,1.2,0,1.7,0v-11.1h14.2v10.8c0.6,0,1.2,0,1.7-0.1
			v-10.7h8.6l0.1-1.7h-8.7v-14.2h9.3l0.1-1.7h-9.4v-14.2h10l0.1-1.7h-10.1v-14.2h14.2v11.7l1.7-1v-10.6h12.4L267.2,134z M190,134
			h-14.2v-14.2H190L190,134L190,134z M206,181.8h-14.2v-14.2H206V181.8z M206,165.9h-14.2v-14.2H206V165.9z M206,149.9h-14.2v-14.2
			H206V149.9z M206,134h-14.2v-14.2H206V134z M206,118h-14.2v-14.2H206V118z M221.9,181.8h-14.2v-14.2h14.2V181.8z M221.9,165.9
			h-14.2v-14.2h14.2V165.9z M221.9,149.9h-14.2v-14.2h14.2V149.9z M221.9,134h-14.2v-14.2h14.2V134z M221.9,118h-14.2v-14.2h14.2
			V118z M237.9,181.8h-14.2v-14.2h14.2V181.8z M237.9,165.9h-14.2v-14.2h14.2V165.9z M237.9,149.9h-14.2v-14.2h14.2V149.9z
			 M237.9,134h-14.2v-14.2h14.2V134z M237.9,118h-14.2v-14.2h14.2V118z M253.9,134h-14.2v-14.2h14.2V134z"/>
	</g>
	<path class="st8" d="M232.3,92.7c-1.4,5.7-4.6,11.3-11.9,11.3c-12-0.1-15.5-9.2-16.5-12.9l3.9-0.6l20.2,1.7l3.6,0.5
		C231.8,92.6,232,92.7,232.3,92.7z"/>
	<line class="st9" x1="247.4" y1="146.5" x2="245.8" y2="123.3"/>
	<path class="st2" d="M237.4,53.7c0,0,2.5,2.7,0.5,7.5s-3,8.8-3.1,13.2c-0.1,3.7-16.2,5.9-21.8,6.5c-1.1,0.1-1.8,0.2-1.8,0.2
		l-4.4-8.6c-0.6-1.5-2-4.4-3.2-7.7c-2-5.4-3.5-12-0.4-15.9c5.1-6.3,10.8-3.5,19.5-7.8c8.7-4.3,13.1-8.3,18.1-2.4
		C245.8,44.6,237.4,53.7,237.4,53.7z"/>
	<path class="st10" d="M214.5,79.1l-1.5,1.9c-1.1,0.1-1.8,0.2-1.8,0.2l-4.4-8.6c-0.6-1.5-2-4.4-3.2-7.7c4.3-1.8,7.3-6.3,7.3-6.3
		L214.5,79.1z"/>
	<path class="st1" d="M228,92.1c0,0,0.4,8.5-8.8,8.2c-9.2-0.3-11.4-9.9-11.4-9.9l2.5-0.5c0,0,0.9-10.1,0-17.4l17.6,9
		c-0.2,0.2-0.3,0.4-0.5,0.5c-2,2.8-1.8,9.2-1.8,9.2L228,92.1z"/>
	<path class="st3" d="M225.7,91.3c-11.4,0.3-14.5-12.9-14.5-12.9l16.3,3.7C225.5,84.9,225.7,91.3,225.7,91.3z"/>
	<path class="st1" d="M235.9,73.3c0,1.6,0,3.2-0.3,4.7c-0.9,6.1-4.2,10.4-12.1,9.8c-11.6-0.9-13.7-12.4-13.7-12.4s-3,2.5-5.9-0.4
		c-2.9-2.9-1.4-7.2,1.4-7.7c1.5-0.3,3,1.3,4.1,2.8c0.5,0.6,1.5,0.3,1.5-0.5V58.5c0,0,14.2,0.6,22.6-2.5c0,0,0.1,0,0.1,0
		c1.3,1.2,1.8,2.9,2,4.7c0.2,2.5-0.3,5.3,0,7.7C235.8,70,235.9,71.7,235.9,73.3z"/>
	<path class="st11" d="M227.5,75.5l1.1-0.7c0.8-0.4,1.1-1.4,0.7-2.2l-1.8-4.2"/>
	<path class="st12" d="M223.5,71.5c0,0.6-0.4,1-0.8,1s-0.8-0.5-0.8-1s0.4-1,0.8-1C223.1,70.5,223.5,70.9,223.5,71.5z"/>
	<ellipse class="st12" cx="232.3" cy="71" rx="0.8" ry="1"/>
	<path class="st11" d="M204.4,70.5c1.7-1,3.8,0.7,3.4,3.1"/>
	<path class="st11" d="M223.7,80.1c0,0,2.2,2.3,5.2,0.5"/>
	<path class="st13" d="M218.8,67.1c0,0,1.7-2.5,5-1.4"/>
	<path class="st13" d="M234.8,65.8c0,0-2-2.2-5.2-0.2"/>
	<circle class="st14" cx="219.2" cy="75.5" r="2.8"/>
	<path class="st14" d="M235.9,73.3c0,1.6,0,3.2-0.3,4.7c-0.4,0.2-0.9,0.4-1.4,0.4c-1.5,0-2.8-1.3-2.8-2.8c0-1.5,1.3-2.8,2.8-2.8
		C234.9,72.7,235.5,72.9,235.9,73.3z"/>
	<g>
		<path class="st15" d="M242,168.1h-14.5c-1.7,0-2.9-1.4-2.5-3.1l6.1-30.3c0.4-1.7,2-3.1,3.8-3.1h16.6c1.7,0,2.9,1.4,2.5,3.1
			l-8.2,30.3C245.4,166.7,243.7,168.1,242,168.1z"/>
		<path class="st16" d="M244,169.4h-14.5c-1.7,0-2.9-1.4-2.5-3.1l6.1-30.3c0.4-1.7,2-3.1,3.8-3.1h14.5c1.7,0,2.9,1.4,2.5,3.1
			l-6.1,30.3C247.5,168,245.8,169.4,244,169.4z"/>
	</g>
	<path class="st1" d="M240.5,163.3c0,3-3.6,5.6-3.6,5.6s0.9,4.1-5.9,5.5c-6.8,1.4-13.6-4.5-13.6-4.5l-43.6,9.2
		c-1.1,0.2-2.3,0.4-3.4,0.4c-4.9,0-9.6-2.2-12.7-6.1c-4-4.9-4.8-11.6-2.1-17.2l6.3-13.6l2.2-4.7l22.2,13l-1.6,2.7l-2.3,4l35.3-1.3
		c0,0,3.6-2.5,6-5.6c2.3-3.1,3.2-3.8,5-2.6c1.8,1.2-0.2,6.4-1.7,8.5c5.6,3.1,12.4,0.7,15.1,1.1C244.7,158,244.7,161.2,240.5,163.3z"
		/>
	<path class="st11" d="M240.5,163.3c-3.5,1.5-12,0.2-14.4-1.5"/>
	<path class="st11" d="M236.9,168.9c-4.8,0.9-10.1,0.6-12.9-2.1"/>
	<path class="st17" d="M235.4,146L235.4,146c-0.9,0-1.5-0.7-1.3-1.6l1.2-5.9c0.2-0.9,1-1.6,2-1.6l0,0c0.9,0,1.5,0.7,1.3,1.6
		l-1.2,5.9C237.1,145.3,236.3,146,235.4,146z"/>
	<line class="st11" x1="182.4" y1="157.5" x2="170.7" y2="157.5"/>
	<line class="st11" x1="252" y1="161.8" x2="258.2" y2="154.2"/>
	<line class="st9" x1="186.3" y1="150.8" x2="199" y2="126.4"/>
	<polygon class="st3" points="186.3,150.8 184.7,153.5 161.9,142.5 164,137.8 	"/>
	<line class="st9" x1="216" y1="247" x2="224" y2="220.8"/>
	<path class="st2" d="M139.6,364.9l25.5-14.7l4.8,6.8H181l1.2,10.3h-42C139,367.3,138.5,365.6,139.6,364.9z"/>
	<g>
		<path class="st4" d="M186.1,347.3l-22.4-4.6c-1.5-0.3-2.5-1.8-2.2-3.3l0.7-3.6c0.3-1.5,1.8-2.5,3.3-2.2l22.4,4.6
			c1.5,0.3,2.5,1.8,2.2,3.3l-0.7,3.6C189.1,346.7,187.6,347.6,186.1,347.3z"/>
		<line class="st9" x1="165.1" y1="333.6" x2="188.4" y2="338.4"/>
	</g>
	<g>
		<path class="st4" d="M262.1,343l-22.5,4.2c-1.5,0.3-3-0.7-3.3-2.3l-0.7-3.6c-0.3-1.5,0.7-3,2.3-3.3l22.5-4.2
			c1.5-0.3,3,0.7,3.3,2.3l0.7,3.6C264.6,341.3,263.6,342.7,262.1,343z"/>
		<line class="st9" x1="237.5" y1="338.2" x2="260.9" y2="333.9"/>
	</g>
	<line class="st9" x1="192.6" y1="185.1" x2="243.7" y2="177.6"/>
	<polygon class="st5" points="223.4,224 220.6,266.8 216.1,247.5 216.1,246.6 	"/>
</g>
<path class="st8" d="M130,367.9c0,0,0-14.8-7-36.1c-7-21.3-42.9-25.6-39.2-56.2c20.1,7.2,35.9,37.1,39.4,46.2
	c-11.8-45.9-3.5-78.4-3.5-78.4s16.1,34.3,10.2,78.6c21.2-53.1,37.9-60.4,37.9-60.4s-4.4,32.2-15.9,49.1
	c-11.5,16.9-20.4,16.6-20.4,16.6s0.3,27.8,5.4,40.6L130,367.9L130,367.9z"/>
<line class="st18" x1="105.8" y1="367.3" x2="343" y2="367.3"/>
<circle class="st19" cx="78" cy="177.6" r="10.4"/>
<circle class="st19" cx="86.7" cy="112.4" r="19.1"/>
<circle class="st20" cx="321.7" cy="163.7" r="8.7"/>
<circle class="st21" cx="320.1" cy="224.3" r="15.8"/>
</svg>
