<?xml version="1.0" encoding="utf-8"?>
<!-- Generator: Adobe Illustrator 24.2.1, SVG Export Plug-In . SVG Version: 6.00 Build 0)  -->
<svg version="1.1" id="Capa_1" xmlns="http://www.w3.org/2000/svg" xmlns:xlink="http://www.w3.org/1999/xlink" x="0px" y="0px"
	 viewBox="0 0 659.2 515" style="enable-background:new 0 0 659.2 515;" xml:space="preserve">
<style type="text/css">
	.st0{fill-rule:evenodd;clip-rule:evenodd;fill:#D7D5EC;}
	.st1{fill-rule:evenodd;clip-rule:evenodd;fill:#282657;}
	.st2{fill-rule:evenodd;clip-rule:evenodd;fill:#E06263;}
	.st3{fill-rule:evenodd;clip-rule:evenodd;fill:#1E1C3E;}
	.st4{fill-rule:evenodd;clip-rule:evenodd;fill:#9D9DCC;}
	.st5{fill-rule:evenodd;clip-rule:evenodd;fill:#5865AD;}
	.st6{fill-rule:evenodd;clip-rule:evenodd;fill:#494E9C;}
	.st7{fill-rule:evenodd;clip-rule:evenodd;fill:#DE9396;}
	.st8{fill-rule:evenodd;clip-rule:evenodd;fill:#D04B61;}
	.st9{fill-rule:evenodd;clip-rule:evenodd;fill:#FFFFFF;}
	.st10{fill-rule:evenodd;clip-rule:evenodd;fill:#E8B8BA;}
	.st11{fill:#212147;}
	.st12{fill-rule:evenodd;clip-rule:evenodd;fill:#EAEBF5;}
</style>
<path class="st0" d="M604.6,396.6c43.6-15,65.7-66.9,49.1-115.2l0,0c-16.7-48.3-66-75.5-109.6-60.5l0,0c-8.8,3-18.7-2.4-22-12.1l0,0
	c-3.3-9.7,1.1-20.1,9.8-23.1l41.5-14.3c21.3-7.3,32.1-32.6,23.9-56.2l0,0c-8.1-23.6-32.2-36.9-53.5-29.5
	c-18.4,6.4-39.2-5.1-46.3-25.5l0,0l0,0C484.8,22.9,446.8,2,413.2,13.5l-18.3,6.3l0,0l-269,92.7l-71.3,24.6
	C11,152.2-11.1,204,5.6,252.4l0,0c16.7,48.3,66,75.5,109.6,60.5l7.7-2.6c8.8-3,18.7,2.4,22,12.1l0,0c3.3,9.7-1.1,20.1-9.9,23.1
	l-51.7,17.8c-21.3,7.3-32.1,32.6-23.9,56.2l0,0c8.1,23.5,32.1,36.8,53.4,29.5c0,0,41.6-14.3,41.6-14.3c18.4-6.3,39.2,5.1,46.3,25.5
	l0,0l0,0c12.8,37.2,50.8,58.2,84.4,46.6C344.7,486.2,545,417.2,604.6,396.6z"/>
<g>
	<path class="st1" d="M326,208c53.9,9.4,54.9,71.7,46.9,125.3c-1.7,26.5,1.3,67.2-1.6,78.5c-0.3,1-1.2,2.6-2.3,4.1l-62.5,2h-70.1
		c-1.1-1.6-2-3.1-2.3-4.1c-2.9-11.3,3.1-69.7,1.4-96.3l-5-89.1l56.4-20.5H326z"/>
	<g>
		<path class="st2" d="M345.9,145.2c0.3,0,0.6,0.1,0.9,0.1h0l0,0c5.4,1.1,9.5,5.8,9.6,11.6c0.1,6.6-5.2,12.1-11.8,12.3
			c-6.6,0.1-12.1-5.2-12.3-11.8c-0.1-3.9,1.7-7.3,4.5-9.6c-0.3,3.6,0.3,8,4.8,8.4l-0.1-7C341.3,146.4,343.9,145.1,345.9,145.2z"/>
		<path class="st2" d="M263.8,145.2c-0.3,0-0.6,0.1-0.9,0.1h0l0,0c-5.4,1.1-9.5,5.8-9.6,11.6c-0.1,6.6,5.2,12.1,11.8,12.3
			c6.6,0.1,12.1-5.2,12.3-11.8c0.1-3.9-1.7-7.3-4.5-9.6c0.3,3.6-0.3,8-4.8,8.4l0.1-7C268.3,146.4,265.7,145.1,263.8,145.2z"/>
	</g>
	<polygon class="st3" points="352.4,116.4 348.5,152.3 340.3,118.4 	"/>
	<path class="st4" d="M326,207.2c2.5-0.2,3.4-0.4,5.4-0.4c5.4,18.8-5.2,32.6-25,32.6c-14.7,0-26.6-12-26.6-26.6v-2.1l7.1-2.6
		L326,207.2z"/>
	<path class="st5" d="M433,427.5H294.2c-5.3,0-9.5-4.3-9.5-9.5l0,0c0-5.3,4.3-9.5,9.5-9.5H433c5.3,0,9.5,4.3,9.5,9.5l0,0
		C442.6,423.2,438.3,427.5,433,427.5z"/>
	<path class="st6" d="M294.6,427.5H232c-5.3,0-9.5-4.3-9.5-9.5l0,0c0-5.3,4.3-9.5,9.5-9.5h62.5c5.3,0,9.5,4.3,9.5,9.5l0,0
		C304.1,423.2,299.8,427.5,294.6,427.5z"/>
	<path class="st7" d="M306.5,167.4L306.5,167.4c-10.8,0-19.5,8.8-19.5,19.5v25.9c0,10.8,8.8,19.5,19.5,19.5l0,0
		c10.8,0,19.5-8.8,19.5-19.5v-25.9C326,176.2,317.2,167.4,306.5,167.4z"/>
	<path class="st2" d="M287,185.2c0,0.5-0.1,1.1-0.1,1.7v25.9c0,2.4,0.4,4.7,1.2,6.8l37.8-16.9v-14.5c-7-1.3-23.9-3-24.8-3.9
		C300.5,183.8,293.6,184.5,287,185.2z"/>
	<path class="st7" d="M348.5,125.6c0,0.2,0,0.4,0,0.6v12.1v25.5c0,22.7-18.6,41.3-41.3,41.3l0,0c-22.7,0-41.3-18.6-41.3-41.3v-5.5
		v-20v-12.1c0-4,0.3-6.7,1.2-9.9c4.5-18,20.8-31.4,40-31.4l0,0C329.7,85,348.2,103.2,348.5,125.6z"/>
	<path class="st2" d="M348.5,125.6l0,0.4l-25.1-10.2l-10.7,6.3l-13.9-3.9c-1.4,2.3-3.9,1.8-3.9,1.8l-14.6-5.3l1.8-21.1
		c2.1-1.6,4.4-3.1,6.8-4.3l43.9,4.5C342.2,101.3,348.3,112.8,348.5,125.6z"/>
	<g>
		<path class="st3" d="M302.2,165.9c-0.2,5.9,4.4,10.9,10.3,11.1c5.9,0.2,10.9-4.4,11.1-10.3h0c0-1-0.8-1.9-1.8-1.9l-17.6-0.7
			C303.2,164.1,302.3,164.9,302.2,165.9L302.2,165.9L302.2,165.9z"/>
		<path class="st8" d="M305.9,174.3c1.8,1.5,4.1,2.5,6.6,2.6c2.1,0.1,4-0.4,5.7-1.4c-0.7-2.2-3.1-4-5.9-4.2
			C309.5,171.2,307,172.4,305.9,174.3z"/>
		<path class="st9" d="M322,164.8l-16.5-0.6c-0.3,1.8,0.4,3.7,1.7,4.2c1.5,0.5,13.5,0.7,14.4-0.2C321.9,167.7,322,166.2,322,164.8z"
			/>
	</g>
	<g>
		<path class="st2" d="M289.9,156.7c3-0.1,5.5,2.3,5.5,5.3c0.1,3-2.3,5.5-5.3,5.5c-3,0.1-5.5-2.3-5.5-5.3
			C284.5,159.2,286.9,156.8,289.9,156.7z"/>
		<path class="st2" d="M335,155.8c3-0.1,5.5,2.3,5.5,5.3c0.1,3-2.3,5.5-5.3,5.5c-3,0.1-5.5-2.3-5.5-5.3
			C329.6,158.3,332,155.9,335,155.8z"/>
	</g>
	<path class="st3" d="M337.3,138c0.7,0.4,1.6,0.1,2-0.6s0.1-1.6-0.6-2c-3.9-2-9.1-2.2-12.9,0c-0.7,0.4-0.9,1.3-0.5,2
		c0.4,0.7,1.3,0.9,2,0.5C330.3,136.1,334.1,136.5,337.3,138z"/>
	<path class="st3" d="M328.4,150.1c0-1,0.4-2,1.1-2.7s1.7-1.1,2.7-1.1c1,0,2,0.4,2.7,1.1s1.1,1.7,1.1,2.7c0,0.8,0.7,1.5,1.5,1.5
		s1.5-0.7,1.5-1.5c0-1.8-0.7-3.5-2-4.8c-1.3-1.3-3-2-4.8-2s-3.5,0.7-4.8,2c-1.3,1.3-2,3-2,4.8c0,0.8,0.7,1.5,1.5,1.5
		S328.4,150.9,328.4,150.1z"/>
	<path class="st10" d="M318.4,153.4c1,1.4,2.8,3.9,2.9,4.9c0.2,1.3-2.8,2.1-4.8,1.5c-1.5-0.4-1.2-3.6-0.8-5.7
		C316.2,151.8,316.8,151.2,318.4,153.4z"/>
	<path class="st3" d="M298.9,138c0.7,0.4,1.6,0.1,2-0.6s0.1-1.6-0.6-2c-3.9-2-9.1-2.2-12.9,0c-0.7,0.4-0.9,1.3-0.5,2
		c0.4,0.7,1.3,0.9,2,0.5C291.9,136.1,295.7,136.5,298.9,138z"/>
	<path class="st3" d="M290,150.1c0-1,0.4-2,1.1-2.7s1.7-1.1,2.7-1.1c1,0,2,0.4,2.7,1.1s1.1,1.7,1.1,2.7c0,0.8,0.7,1.5,1.5,1.5
		s1.5-0.7,1.5-1.5c0-1.8-0.7-3.5-2-4.8c-1.3-1.3-3-2-4.8-2s-3.5,0.7-4.8,2c-1.3,1.3-2,3-2,4.8c0,0.8,0.7,1.5,1.5,1.5
		S290,150.9,290,150.1z"/>
	<path class="st3" d="M266,158.3c0,0,9.2-10.4,4.8-24.3c0,0,16-8.7,16-21.9c0,0,1.9,4.6,5.1,5.7s4.8-3.1,3.2-5.1
		c0,0,11.7,8.5,21.3,10.4c9.6,1.9,12.5-7.8,8.5-11.3c0,0,15.5,10.8,25.4,8.2s15.8-41.4-18.2-49.9s-55.5,0.4-62.8,5.3
		c-7.3,4.9-12,18-6.9,27c0,0-6.1,5.9-7.7,14.4c-1.6,8.5,4.8,29.8,4.8,29.8S266,147.3,266,158.3z"/>
	<path class="st1" d="M353.2,84.6L353.2,84.6c-41.6,14.2-62.8-2.2-72.3-14.5c-3,0.9-5.5,2-7.6,3c22.8,37.3,60,36.5,84.7,30.7
		C358.3,97.7,357,90.7,353.2,84.6z"/>
	<path class="st2" d="M280,277.8c1.5,2.1,3,4.1,4.7,5.7c1.8,1.6,17.7,7.3,17.7,7.3s-1.1,3.6-4.7,3.6c-3.5,0-6.1,0-9.1,0
		c-3,0-5.3,9.8-16.2,14.1c-8.3,3.3-5-19.6-3-30.8L280,277.8L280,277.8z"/>
	<path class="st9" d="M314,222.8h-26.3c-2.1,0-3.8,1.7-3.8,3.8v60.9c0,2.1,1.7,3.8,3.8,3.8H314c2.1,0,3.8-1.7,3.8-3.8v-60.9
		C317.8,224.5,316,222.8,314,222.8z"/>
	<g>
		<rect x="283.9" y="230.3" class="st0" width="33.9" height="1.3"/>
		<rect x="283.9" y="282.5" class="st0" width="33.9" height="1.3"/>
	</g>
	<path class="st2" d="M282.9,242.3c0,0,1.4,1.1,1.5,3.8c0.1,2.7-1.7,5.4-2.4,7.2l-2.6,9c0,0-1.3,12.5-1.5,13
		c-0.1,0.2,0.9,1.6,2.3,3.2l-10.5,1c0.3-3.6,0.6-6,0.6-6l-1.1-6.4c0,0,3.5-9.7,4.9-12.8C275.4,251.3,282.2,241.7,282.9,242.3z"/>
	<path class="st0" d="M300.8,246.1c3.1,0,5.7-2.5,5.7-5.7s-2.5-5.7-5.7-5.7s-5.7,2.5-5.7,5.7S297.7,246.1,300.8,246.1z"/>
	<path class="st7" d="M261.1,332.7c0,0,7.3-13.3,9.3-16.1s4.7-7.8,4.7-14.7c0-6.9-1.1-10.3,1.8-12.5c2.9-2.2,7-3.3,7-3.3
		s6,0.2,7.2,0.3c1.2,0,6.7,1.6,8,1.5s2.5-1.1,2.8-2c0.2-0.8,0.2-1.4-1.7-2.1c-1.9-0.7-7-2.5-8.8-2.8c-1.8-0.3-7.8-0.6-9.1-0.6
		s-5,0.9-5,0.9s3.9-1.8,4.7-2.2c0.9-0.4,7.8-0.9,9.7-0.6s7.9,3.6,11.9,1.3c0,0,0.9-0.7-0.2-1.8c-1.1-1.1-11.7-5.9-13-6.4
		c-1.4-0.5-3-0.4-5.8-0.2s-5.6,0.3-6.9,1.1c-1.3,0.8-3.5,2-3.5,2s3.9-7.4,4.4-7.9c0.5-0.5,8.5-3.9,9-4.1s6-1,7.5-2.2
		c1.5-1.2,1.9-3.1,1.9-3.8s-0.2-1.1-3.1-0.9c-2.9,0.3-6.2,0.6-8.5,0.8c-2.3,0.3-7.6,2.7-10.2,3.7c-2.6,1-4.9,5.1-7.8,10.4
		c-2.9,5.2-7,16.3-8.8,20.6s-0.6,16.9-8,26.6c-7.4,9.8-9.4,11.5-9.4,11.5L261.1,332.7z"/>
	<path class="st1" d="M230.5,228.5c0,0-13.3,5-19.6,28.3c-6.4,23.3-13.2,104.9-14.7,123c-1.5,18,25,33.7,39.5,16.2
		c14.5-17.5,33.9-71.6,33.9-71.6s-5.9-8.8-17-12.3l-7,8.6C245.5,320.5,272.6,223.7,230.5,228.5z"/>
	<path class="st6" d="M205.3,289.4c-0.3,2.4-0.6,4.8-0.9,7.3c24.9-3.4,40.5,4.5,45,7.2c0.5-2.3,0.9-4.7,1.4-7.3
		C243.8,292.9,228.1,286.8,205.3,289.4L205.3,289.4z M203.4,304.3c21.2-2.9,36.5,1.9,44.6,5.6c-0.6,2.8-1.2,5.2-1.7,7
		c-6.9-3.4-21.9-8.7-43.8-5.3C202.9,309.2,203.2,306.7,203.4,304.3z"/>
	<path class="st0" d="M287.9,228.5c1,0,1.9-0.8,1.9-1.9s-0.8-1.9-1.9-1.9s-1.9,0.8-1.9,1.9C286,227.7,286.9,228.5,287.9,228.5z"/>
	<path class="st4" d="M292.3,227.8c0.6,0,1.1-0.5,1.1-1.1s-0.5-1.1-1.1-1.1s-1.1,0.5-1.1,1.1C291.2,227.3,291.7,227.8,292.3,227.8z"
		/>
	<path class="st4" d="M287.9,228c0.8,0,1.4-0.6,1.4-1.4c0-0.8-0.6-1.4-1.4-1.4c-0.8,0-1.4,0.6-1.4,1.4
		C286.5,227.4,287.2,228,287.9,228z"/>
	<path class="st0" d="M287.9,227.2c0.3,0,0.6-0.3,0.6-0.6s-0.3-0.6-0.6-0.6s-0.6,0.3-0.6,0.6C287.3,227,287.6,227.2,287.9,227.2z"/>
	<path class="st9" d="M288.5,226.5c0.3,0,0.6-0.3,0.6-0.6s-0.3-0.6-0.6-0.6s-0.6,0.3-0.6,0.6S288.2,226.5,288.5,226.5z"/>
	<path class="st0" d="M292.3,227.2c0.3,0,0.6-0.3,0.6-0.6c0-0.3-0.3-0.6-0.6-0.6c-0.3,0-0.6,0.3-0.6,0.6S292,227.2,292.3,227.2z"/>
	<g>
		<g>
			<path class="st11" d="M233,399.6c-0.3,0-0.5-0.1-0.7-0.3c-0.3-0.4-0.3-0.9,0.1-1.3c0.9-0.8,1.8-1.7,2.6-2.7
				c13.5-16.3,31.7-65.8,33.5-70.9c-1.2-1.6-6.7-8.4-15.7-11.4l-6.7,8.1c-0.3,0.3-0.7,0.4-1.1,0.2c-0.4-0.2-0.6-0.6-0.5-1
				c0.1-0.3,8.5-30.7,8.5-56.2c0-0.5,0.4-0.9,0.9-0.9l0,0c0.5,0,0.9,0.4,0.9,0.9c0,20.3-5.3,43.6-7.6,52.8l4.5-5.5
				c0.2-0.3,0.6-0.4,1-0.3c11.3,3.5,17.2,12.3,17.5,12.7c0.2,0.2,0.2,0.5,0.1,0.8c-0.8,2.2-19.6,54.5-34,71.9c-0.9,1-1.8,2-2.8,2.9
				C233.4,399.5,233.2,399.6,233,399.6z"/>
		</g>
		<g>
			<path class="st11" d="M217.5,355.4c-0.2,0-0.4-0.1-0.6-0.2c-0.4-0.3-0.4-0.9-0.1-1.3l31.2-37.9c0.3-0.4,0.9-0.4,1.3-0.1
				s0.4,0.9,0.1,1.3l-31.2,37.9C218,355.3,217.7,355.4,217.5,355.4z"/>
		</g>
		<g>
			<path class="st11" d="M217.6,347.9c-0.3,0-0.7-0.2-0.8-0.5c-0.2-0.5,0-1,0.5-1.2c3-1.3,8.6-3.3,8.9-3.4c0.5-0.2,1,0.1,1.1,0.5
				s-0.1,1-0.5,1.1c-0.1,0-5.8,2.1-8.8,3.4C217.9,347.9,217.8,347.9,217.6,347.9z"/>
		</g>
		<g>
			<path class="st11" d="M250.5,298.7c-0.1,0-0.2,0-0.3-0.1c-0.5-0.2-0.7-0.7-0.5-1.1c0.1-0.2,6.2-17,6.8-18.8
				c0.1-0.5,0.6-0.7,1.1-0.6c0.5,0.1,0.7,0.6,0.6,1.1c-0.6,1.9-6.5,18.2-6.8,18.9C251.2,298.5,250.9,298.7,250.5,298.7z"/>
		</g>
		<g>
			<path class="st11" d="M376.9,287.4c-0.5,0-0.9-0.4-0.9-0.9c-0.7-24.4-6-43.5-15.5-56.7c-0.3-0.4-0.2-1,0.2-1.2
				c0.4-0.3,1-0.2,1.2,0.2c9.8,13.5,15.1,32.9,15.9,57.7C377.8,287,377.4,287.4,376.9,287.4C376.9,287.4,376.9,287.4,376.9,287.4z"
				/>
		</g>
	</g>
</g>
<path class="st3" d="M46.2,413.5h565.7c3.7,0,6.8,3.4,6.8,7.6l0,0c0,4.2-3,7.6-6.8,7.6h-22.8c-2.1,0-3.8,1.9-3.8,4.2l0,0
	c0,2.3,1.7,4.2,3.8,4.2h8.3c2.6,0,4.7,2.4,4.7,5.3l0,0c0,2.9-2.1,5.3-4.7,5.3H61.4c-2.6,0-4.7-2.4-4.7-5.3l0,0
	c0-2.9,2.1-5.3,4.7-5.3h6.6c2.1,0,3.8-1.9,3.8-4.2l0,0c0-2.3-1.7-4.2-3.8-4.2H46.2c-3.7,0-6.8-3.4-6.8-7.6l0,0
	C39.5,416.9,42.5,413.5,46.2,413.5L46.2,413.5z M49.7,447.7c2.5,0,4.5-2.3,4.5-5.1v-0.4c0-2.8-2-5.1-4.5-5.1l0,0
	c-2.5,0-4.5,2.3-4.5,5.1v0.4C45.2,445.4,47.2,447.7,49.7,447.7L49.7,447.7z"/>
<g>
	<path class="st0" d="M556.5,228.7H342.6c-3.1,0-5.9,2.5-6.2,5.6l-15.2,133.8c-0.4,3.1,1.9,5.6,5,5.6H540c3.1,0,5.9-2.5,6.2-5.6
		l15.2-133.8C561.8,231.2,559.6,228.7,556.5,228.7z"/>
	<path class="st9" d="M574.7,228.7H351c-3.1,0-5.9,2.5-6.2,5.6l-15.2,133.8c-0.4,3.1,1.9,5.6,5,5.6h223.7c3.1,0,5.9-2.5,6.2-5.6
		l15.2-133.8C580,231.2,577.8,228.7,574.7,228.7z"/>
	<path class="st4" d="M471.5,311.1h-20h-3h-20c-2.8,0-4.5,2.3-3.8,5.1l22,88.2c0.7,2.8,3.5,5.1,6.3,5.1h9.6h3h9.6
		c2.8,0,5-2.3,4.9-5.1l-3.5-88.2C476.6,313.3,474.3,311.1,471.5,311.1z"/>
	<path class="st12" d="M478,311.1h-20h-3h-20c-2.8,0-4.5,2.3-3.8,5.1l22,88.2c0.7,2.8,3.5,5.1,6.3,5.1h9.6h3h9.6
		c2.8,0,5-2.3,4.9-5.1l-3.5-88.2C483.1,313.3,480.7,311.1,478,311.1z"/>
	<path class="st9" d="M516,417.7H402.2c-4.5,0-8.3-3.7-8.3-8.3l0,0c0-4.5,3.7-8.3,8.3-8.3H516c4.5,0,8.3,3.7,8.3,8.3l0,0
		C524.3,414,520.6,417.7,516,417.7z"/>
	<path class="st4" d="M414.4,417.7h-43.4c-4.5,0-8.3-3.7-8.3-8.3l0,0c0-4.5,3.7-8.3,8.3-8.3h43.4c4.5,0,8.3,3.7,8.3,8.3l0,0
		C422.7,414,419,417.7,414.4,417.7z"/>
</g>
</svg>
