<?xml version="1.0" encoding="utf-8"?>
<!-- Generator: Adobe Illustrator 24.2.1, SVG Export Plug-In . SVG Version: 6.00 Build 0)  -->
<svg version="1.1" id="Capa_1" xmlns="http://www.w3.org/2000/svg" xmlns:xlink="http://www.w3.org/1999/xlink" x="0px" y="0px"
	 viewBox="0 0 473 422" style="enable-background:new 0 0 473 422;" xml:space="preserve">
<style type="text/css">
	.st0{fill-rule:evenodd;clip-rule:evenodd;fill:#D7D5EC;}
	.st1{fill:#E67474;}
	.st2{fill:#383A45;}
	.st3{fill:#047979;}
	.st4{fill:#625676;}
	.st5{fill:#D6EBE1;}
	.st6{fill:#9DD2C9;}
</style>
<path class="st0" d="M89,36.6c-34.3-3.5-65.6,25.2-69.6,63.9l0,0c-4,38.7,20.8,73.2,55.1,76.7l0,0c6.9,0.7,11.9,7.7,11.1,15.4l0,0
	c-0.8,7.7-7.1,13.5-14,12.8L38.9,202c-16.7-1.7-32,12.3-34,31.2l0,0c-1.9,18.8,10.1,35.7,26.9,37.4c14.5,1.5,24.9,16.1,23.2,32.4
	l0,0l0,0c-3.1,29.7,16,56.3,42.4,59.1l14.3,1.5l0,0l211.3,21.8l56,5.8c34.3,3.5,65.6-25.2,69.6-63.9l0,0c4-38.7-20.8-73.2-55.1-76.7
	l-6-0.6c-6.9-0.7-11.9-7.6-11.1-15.4l0,0c0.8-7.7,7.1-13.5,14-12.8l40.6,4.2c16.7,1.7,32-12.3,34-31.2l0,0
	c1.9-18.8-10.1-35.7-26.8-37.4l-32.6-3.4c-14.5-1.5-24.9-16.1-23.2-32.4l0,0l0,0c3.1-29.7-16-56.3-42.4-59
	C293.2,57.6,135.8,41.4,89,36.6z"/>
<g>
	<path class="st1" d="M210.6,58.9c0,0-1.9-8.2-8.3-4.5c-6.3,3.7-0.5,14.2,6,16.8C214.8,73.7,210.6,58.9,210.6,58.9z"/>
	<path class="st1" d="M255.3,57.7c0,0,1.9-8.2,8.3-4.5c6.4,3.7,0.5,14.2-6,16.8C251.1,72.5,255.3,57.7,255.3,57.7z"/>
	<path class="st1" d="M257.2,34.8c0.9,3.2-1.8,50.9-21.7,55.9c-20,4.9-28.3-32.3-26.9-53.9C209.9,15.2,249.7,8.5,257.2,34.8z"/>
	<path class="st2" d="M295.6,366.1l20.6,5.8c-0.5,3.4-8.6,39.7-11,39.8c-2.4,0-1.5-29.2-1.5-29.2s-8.9-1.3-10-2
		C292.6,379.9,295.6,366.1,295.6,366.1z"/>
	<path class="st2" d="M145.9,371.1l-20.3,7c0.7,3.4,10.8,39.2,13.2,39.1c2.4-0.1-0.2-29.2-0.2-29.2s8.8-1.8,9.9-2.6
		C149.6,384.7,145.9,371.1,145.9,371.1z"/>
	<path class="st3" d="M211.5,297.9c0,0,106.7-47.5,157.8-7.7c66.5,51.8-223.4,98.8-223.4,98.8l-7.8-17.1c0,0,196.7-75.6,165.8-63.6
		C273.1,320.1,175.6,340.6,211.5,297.9z"/>
	<path class="st3" d="M240.2,288.7c0,0-119.3-35.8-170.6,3.6c-51.4,39.4,224.7,102.4,224.7,102.4l10.6-27.5c0,0-193.4-71.5-162.8-59
		C190.7,328,276.1,331.4,240.2,288.7z"/>
	<path class="st1" d="M190.7,153.3c0,0-90,48.5-73.8,85.3c16.3,36.8,56.8,57.8,61.9,65.5c5.1,7.7,7.8,19.6,7.8,19.6s-4-4.2-17.9-8.5
		C154.8,311,88,275.2,88,229.1s74.7-105.8,88.2-113.1C189.8,108.7,190.7,153.3,190.7,153.3z"/>
	<path class="st1" d="M278.9,151.8c0,0,78.2,58.1,62,94.9c-16.3,36.8-49.1,49.8-54.2,57.5c-5.1,7.7-7.8,19.6-7.8,19.6
		s4-4.2,17.9-8.5c13.9-4.3,75.1-38.7,75.1-84.8S302.9,123.3,289.4,116C275.7,108.7,278.9,151.8,278.9,151.8z"/>
	<path class="st4" d="M161.2,306.6h131.1c0,0,7.9-187-2.4-192.6c-33.7-18.4-113.6-8.4-117.6,0C168.3,122.4,161.2,306.6,161.2,306.6z
		"/>
	<path class="st5" d="M160.9,248.9c0,0-4.9,90.4,0,92.2c4.9,1.8,126.1,1.7,130.6,0c4.5-1.7,3.2-92.2,3.2-92.2
		S197.4,243.8,160.9,248.9z"/>
	<path class="st6" d="M160.9,334.7c0,0-4.9,10.6,0,10.8c4.9,0.2,126.1,0.2,130.6,0c4.5-0.2,3.2-10.8,3.2-10.8
		S197.4,334.1,160.9,334.7z"/>
	<path class="st1" d="M244.8,68.2c0,0,6.3,35.5,3.9,39.4c-2.4,3.9-8.7,12-14.5,12s-12.4-12-12.8-13.9c-0.4-1.9,0-43,0-43
		S238.1,54.6,244.8,68.2z"/>
	<path class="st2" d="M213.5,23.5c0,0,4-17.3,14.7-15.6c10.8,1.7,26.8-1.2,31.9,4.4c5.1,5.6,7.4,17.9-3.7,20.3
		c-11.1,2.3-37.1-10.8-40.4-0.4c-8.4,26.9,3.2,39.9,3.2,39.9c6.7,1.7,25.7,0.3,30-2.2c8.1-4.7,0-42,3.8-41.5
		c3.9,0.4,6.9,2.2,6.4,11.6s-2.6,52.3-10.7,55.6c-5.5,2.2-25.6,1.3-28.9-1.6c-6.2-5.6-18.2-48-14.8-58.3
		C208.5,25.4,208.6,23.9,213.5,23.5z"/>
	<path class="st4" d="M186.9,160.6c0,0-31.7,26.7-37.5,31.7c-5.8,4.9-32.6-23-32.6-28.1c0-5,51.3-47.8,55.4-50.2
		C176.5,111.5,190.1,138.1,186.9,160.6z"/>
	<path class="st4" d="M275.4,160.6c0,0,31.7,26.7,37.5,31.7c5.8,4.9,32.6-23,32.6-28.1c0-5-51.3-47.8-55.4-50.2
		C285.8,111.5,272.3,138.1,275.4,160.6z"/>
</g>
</svg>
