<?xml version="1.0" encoding="utf-8"?>
<!-- Generator: Adobe Illustrator 24.2.1, SVG Export Plug-In . SVG Version: 6.00 Build 0)  -->
<svg version="1.1" id="Capa_1" xmlns="http://www.w3.org/2000/svg" xmlns:xlink="http://www.w3.org/1999/xlink" x="0px" y="0px"
	 viewBox="0 0 181 351" style="enable-background:new 0 0 181 351;" xml:space="preserve">
<style type="text/css">
	.st0{fill:#F0C9CF;}
	.st1{fill:#D783A7;}
	.st2{fill:#293551;}
	.st3{fill:#23254F;}
	.st4{fill:#5F72B6;}
	.st5{fill:#4457A3;}
	.st6{fill:#EBAF64;}
	.st7{clip-path:url(#SVGID_2_);}
	.st8{opacity:0.25;fill:#FFFFFF;enable-background:new    ;}
	.st9{fill:#364380;}
	.st10{fill:#FFFFFF;}
	.st11{fill:none;stroke:#C95E8B;stroke-width:0.5252;stroke-linecap:round;stroke-miterlimit:9;}
	.st12{fill:#020203;}
	.st13{fill:none;stroke:#23254F;stroke-width:0.7879;stroke-linecap:round;stroke-linejoin:round;stroke-miterlimit:10;}
	.st14{fill:#EAB7C0;}
	.st15{fill:none;stroke:#23254F;stroke-width:0.5252;stroke-linecap:round;stroke-linejoin:round;stroke-miterlimit:10;}
</style>
<g>
	<path class="st0" d="M130.7,75.2L119.6,117c-1.8,6.7-8.7,10.5-15.3,8.5l-7.5-2.3l22.6-53.2L130.7,75.2z"/>
	<path class="st1" d="M123.9,63.6c-0.9-1.1-8,2.6-9.7,3s-0.2,4.6,3,4.2s4.1-3.7,4.1-3.7L123.9,63.6z"/>
	<path class="st2" d="M118.7,54.6l-0.2,27.4l3-0.6V54.6c0-0.6-0.4-1.1-1-1.3l0,0C119.6,53,118.7,53.6,118.7,54.6z"/>
	<path class="st0" d="M122.9,64c0,0-9,9-7.3,11.7c1.7,2.6,7.3-2.1,8.4-3.6c-0.1,3,3.7,5.9,6,5.5c3.5-0.5,4.9-4.1,3.8-5.7
		c-1.1-1.6-7.6-5.4-7.6-5.4S124.6,61.6,122.9,64z"/>
	<g>
		<polyline class="st0" points="34.7,316.1 31.5,332.7 36.4,341 48,336.5 52.7,320.2 		"/>
		<path class="st3" d="M6.6,344.4l25.5-14.7l4.8,6.8H48l1.2,10.3h-42C5.9,346.8,5.5,345,6.6,344.4z"/>
	</g>
	<g>
		<polyline class="st0" points="144.3,316.1 147.5,332.7 142.6,341 131,336.5 126.3,320.2 		"/>
		<path class="st3" d="M172.4,344.4l-25.5-14.7l-4.8,6.8H131l-1.2,10.3h42C173.1,346.8,173.5,345,172.4,344.4z"/>
	</g>
	<polygon class="st4" points="146.4,310.2 122.3,315.5 85.6,192.5 56.3,313.3 32.5,309.8 47.8,181.4 50.1,161.6 85.8,158.9 
		109.7,157.1 110.1,158.9 110.4,160 	"/>
	<polygon class="st5" points="110.4,160 47.8,181.4 50.1,161.6 85.8,158.9 110.1,158.9 	"/>
	<path class="st6" d="M112,156.1c0.2,1.5-0.9,3-2.4,3.2l-57.4,8.5c-2,0.3-3.7-1.3-3.6-3.3l1.6-45l1.2-32.8l8.8-19.1l1.8-4h20.1
		l2.2,0.3c0.5,0.1,1.1,0.2,1.6,0.3c8.7,1.7,16.1,7.3,20.1,15.3l12.4,25l-11.8,11.9L112,156.1z"/>
	<path class="st6" d="M58.8,81.6c-0.4,0.9-0.5,1.9-0.5,2.8l2.2,28.9l-1.9,1.1l-8.5,5l-10.6,6.2l-1.8,1l-3.4-28.8
		C33,85.3,39.8,73.1,51.4,67.8l7.2-3.3l3.5-1.6l2.5,0.7L66,64l-2.9,7L58.8,81.6z"/>
	<g>
		<g>
			<defs>
				<path id="SVGID_1_" d="M106.7,116.3l11.8-11.9l-12.4-25c-4-8-11.4-13.6-20.1-15.3c-0.5-0.1-1.1-0.2-1.6-0.3l-2.2-0.3H64.5
					L62,62.9l-3.5,1.6l-7.2,3.3C39.8,73.1,33,85.3,34.4,97.9l3.4,28.8l12.4-7.3l-1.6,45c-0.1,2,1.7,3.5,3.6,3.3l57.4-8.5
					c1.5-0.2,2.6-1.7,2.4-3.2L106.7,116.3z"/>
			</defs>
			<clipPath id="SVGID_2_">
				<use xlink:href="#SVGID_1_"  style="overflow:visible;"/>
			</clipPath>
			<g class="st7">
				<g>
					<path class="st8" d="M39.3,155.4c0,1.1-0.9,2.1-2.1,2.1s-2.1-0.9-2.1-2.1s0.9-2.1,2.1-2.1S39.3,154.3,39.3,155.4z"/>
					<path class="st8" d="M51.6,155.4c0,1.1-0.9,2.1-2.1,2.1s-2.1-0.9-2.1-2.1s0.9-2.1,2.1-2.1S51.6,154.3,51.6,155.4z"/>
					<path class="st8" d="M64,155.4c0,1.1-0.9,2.1-2.1,2.1s-2.1-0.9-2.1-2.1s0.9-2.1,2.1-2.1C63,153.4,64,154.3,64,155.4z"/>
					<path class="st8" d="M76.3,155.4c0,1.1-0.9,2.1-2.1,2.1s-2.1-0.9-2.1-2.1s0.9-2.1,2.1-2.1C75.3,153.4,76.3,154.3,76.3,155.4z"
						/>
					<path class="st8" d="M88.6,155.4c0,1.1-0.9,2.1-2.1,2.1s-2.1-0.9-2.1-2.1s0.9-2.1,2.1-2.1S88.6,154.3,88.6,155.4z"/>
					<path class="st8" d="M100.9,155.4c0,1.1-0.9,2.1-2.1,2.1s-2.1-0.9-2.1-2.1s0.9-2.1,2.1-2.1S100.9,154.3,100.9,155.4z"/>
					<path class="st8" d="M113.2,155.4c0,1.1-0.9,2.1-2.1,2.1s-2.1-0.9-2.1-2.1s0.9-2.1,2.1-2.1S113.2,154.3,113.2,155.4z"/>
					<path class="st8" d="M125.5,155.4c0,1.1-0.9,2.1-2.1,2.1s-2.1-0.9-2.1-2.1s0.9-2.1,2.1-2.1S125.5,154.3,125.5,155.4z"/>
				</g>
				<g>
					<path class="st8" d="M39.3,143.9c0,1.1-0.9,2.1-2.1,2.1s-2.1-0.9-2.1-2.1s0.9-2.1,2.1-2.1S39.3,142.8,39.3,143.9z"/>
					<path class="st8" d="M51.6,143.9c0,1.1-0.9,2.1-2.1,2.1s-2.1-0.9-2.1-2.1s0.9-2.1,2.1-2.1S51.6,142.8,51.6,143.9z"/>
					<path class="st8" d="M64,143.9c0,1.1-0.9,2.1-2.1,2.1s-2.1-0.9-2.1-2.1s0.9-2.1,2.1-2.1C63,141.9,64,142.8,64,143.9z"/>
					<path class="st8" d="M76.3,143.9c0,1.1-0.9,2.1-2.1,2.1s-2.1-0.9-2.1-2.1s0.9-2.1,2.1-2.1C75.3,141.9,76.3,142.8,76.3,143.9z"
						/>
					<path class="st8" d="M88.6,143.9c0,1.1-0.9,2.1-2.1,2.1s-2.1-0.9-2.1-2.1s0.9-2.1,2.1-2.1S88.6,142.8,88.6,143.9z"/>
					<path class="st8" d="M100.9,143.9c0,1.1-0.9,2.1-2.1,2.1s-2.1-0.9-2.1-2.1s0.9-2.1,2.1-2.1S100.9,142.8,100.9,143.9z"/>
					<path class="st8" d="M113.2,143.9c0,1.1-0.9,2.1-2.1,2.1s-2.1-0.9-2.1-2.1s0.9-2.1,2.1-2.1S113.2,142.8,113.2,143.9z"/>
					<path class="st8" d="M125.5,143.9c0,1.1-0.9,2.1-2.1,2.1s-2.1-0.9-2.1-2.1s0.9-2.1,2.1-2.1S125.5,142.8,125.5,143.9z"/>
				</g>
				<g>
					<circle class="st8" cx="37.3" cy="132.5" r="2.1"/>
					<path class="st8" d="M51.6,132.5c0,1.1-0.9,2.1-2.1,2.1s-2.1-0.9-2.1-2.1s0.9-2.1,2.1-2.1S51.6,131.3,51.6,132.5z"/>
					<path class="st8" d="M64,132.5c0,1.1-0.9,2.1-2.1,2.1s-2.1-0.9-2.1-2.1s0.9-2.1,2.1-2.1C63,130.4,64,131.3,64,132.5z"/>
					<path class="st8" d="M76.3,132.5c0,1.1-0.9,2.1-2.1,2.1s-2.1-0.9-2.1-2.1s0.9-2.1,2.1-2.1C75.3,130.4,76.3,131.3,76.3,132.5z"
						/>
					<path class="st8" d="M88.6,132.5c0,1.1-0.9,2.1-2.1,2.1s-2.1-0.9-2.1-2.1s0.9-2.1,2.1-2.1S88.6,131.3,88.6,132.5z"/>
					<circle class="st8" cx="98.8" cy="132.5" r="2.1"/>
					<circle class="st8" cx="111.1" cy="132.5" r="2.1"/>
					<circle class="st8" cx="123.4" cy="132.5" r="2.1"/>
				</g>
				<g>
					<circle class="st8" cx="37.3" cy="121" r="2.1"/>
					<path class="st8" d="M51.6,121c0,1.1-0.9,2.1-2.1,2.1s-2.1-0.9-2.1-2.1s0.9-2.1,2.1-2.1S51.6,119.8,51.6,121z"/>
					<path class="st8" d="M64,121c0,1.1-0.9,2.1-2.1,2.1s-2.1-0.9-2.1-2.1s0.9-2.1,2.1-2.1C63,118.9,64,119.8,64,121z"/>
					<path class="st8" d="M76.3,121c0,1.1-0.9,2.1-2.1,2.1s-2.1-0.9-2.1-2.1s0.9-2.1,2.1-2.1C75.3,118.9,76.3,119.8,76.3,121z"/>
					<path class="st8" d="M88.6,121c0,1.1-0.9,2.1-2.1,2.1s-2.1-0.9-2.1-2.1s0.9-2.1,2.1-2.1C87.6,118.9,88.6,119.8,88.6,121z"/>
					<circle class="st8" cx="98.8" cy="121" r="2.1"/>
					<circle class="st8" cx="111.1" cy="121" r="2.1"/>
					<circle class="st8" cx="123.4" cy="121" r="2.1"/>
				</g>
				<g>
					<path class="st8" d="M39.3,109.5c0,1.1-0.9,2.1-2.1,2.1s-2.1-0.9-2.1-2.1s0.9-2.1,2.1-2.1C38.4,107.4,39.3,108.4,39.3,109.5z"
						/>
					<path class="st8" d="M51.6,109.5c0,1.1-0.9,2.1-2.1,2.1s-2.1-0.9-2.1-2.1s0.9-2.1,2.1-2.1S51.6,108.4,51.6,109.5z"/>
					<path class="st8" d="M64,109.5c0,1.1-0.9,2.1-2.1,2.1s-2.1-0.9-2.1-2.1s0.9-2.1,2.1-2.1C63,107.4,64,108.4,64,109.5z"/>
					<path class="st8" d="M76.3,109.5c0,1.1-0.9,2.1-2.1,2.1s-2.1-0.9-2.1-2.1s0.9-2.1,2.1-2.1C75.3,107.4,76.3,108.4,76.3,109.5z"
						/>
					<path class="st8" d="M88.6,109.5c0,1.1-0.9,2.1-2.1,2.1s-2.1-0.9-2.1-2.1s0.9-2.1,2.1-2.1C87.6,107.4,88.6,108.4,88.6,109.5z"
						/>
					<path class="st8" d="M100.9,109.5c0,1.1-0.9,2.1-2.1,2.1s-2.1-0.9-2.1-2.1s0.9-2.1,2.1-2.1S100.9,108.4,100.9,109.5z"/>
					<path class="st8" d="M113.2,109.5c0,1.1-0.9,2.1-2.1,2.1s-2.1-0.9-2.1-2.1s0.9-2.1,2.1-2.1
						C112.3,107.4,113.2,108.4,113.2,109.5z"/>
					<path class="st8" d="M125.5,109.5c0,1.1-0.9,2.1-2.1,2.1s-2.1-0.9-2.1-2.1s0.9-2.1,2.1-2.1S125.5,108.4,125.5,109.5z"/>
				</g>
				<g>
					<path class="st8" d="M39.3,98c0,1.1-0.9,2.1-2.1,2.1s-2.1-0.9-2.1-2.1s0.9-2.1,2.1-2.1C38.4,95.9,39.3,96.9,39.3,98z"/>
					<path class="st8" d="M51.6,98c0,1.1-0.9,2.1-2.1,2.1s-2.1-0.9-2.1-2.1s0.9-2.1,2.1-2.1S51.6,96.9,51.6,98z"/>
					<path class="st8" d="M64,98c0,1.1-0.9,2.1-2.1,2.1s-2.1-0.9-2.1-2.1s0.9-2.1,2.1-2.1C63,95.9,64,96.9,64,98z"/>
					<path class="st8" d="M76.3,98c0,1.1-0.9,2.1-2.1,2.1s-2.1-0.9-2.1-2.1s0.9-2.1,2.1-2.1C75.3,95.9,76.3,96.9,76.3,98z"/>
					<path class="st8" d="M88.6,98c0,1.1-0.9,2.1-2.1,2.1s-2.1-0.9-2.1-2.1s0.9-2.1,2.1-2.1C87.6,95.9,88.6,96.9,88.6,98z"/>
					<path class="st8" d="M100.9,98c0,1.1-0.9,2.1-2.1,2.1s-2.1-0.9-2.1-2.1s0.9-2.1,2.1-2.1S100.9,96.9,100.9,98z"/>
					<path class="st8" d="M113.2,98c0,1.1-0.9,2.1-2.1,2.1S109,99.2,109,98s0.9-2.1,2.1-2.1C112.3,95.9,113.2,96.9,113.2,98z"/>
					<path class="st8" d="M125.5,98c0,1.1-0.9,2.1-2.1,2.1s-2.1-0.9-2.1-2.1s0.9-2.1,2.1-2.1S125.5,96.9,125.5,98z"/>
				</g>
				<g>
					<circle class="st8" cx="37.3" cy="86.5" r="2.1"/>
					<path class="st8" d="M51.6,86.5c0,1.1-0.9,2.1-2.1,2.1s-2.1-0.9-2.1-2.1s0.9-2.1,2.1-2.1S51.6,85.4,51.6,86.5z"/>
					<path class="st8" d="M64,86.5c0,1.1-0.9,2.1-2.1,2.1s-2.1-0.9-2.1-2.1s0.9-2.1,2.1-2.1C63,84.5,64,85.4,64,86.5z"/>
					<path class="st8" d="M76.3,86.5c0,1.1-0.9,2.1-2.1,2.1s-2.1-0.9-2.1-2.1s0.9-2.1,2.1-2.1C75.3,84.5,76.3,85.4,76.3,86.5z"/>
					<path class="st8" d="M88.6,86.5c0,1.1-0.9,2.1-2.1,2.1s-2.1-0.9-2.1-2.1s0.9-2.1,2.1-2.1S88.6,85.4,88.6,86.5z"/>
					<circle class="st8" cx="98.8" cy="86.5" r="2.1"/>
					<circle class="st8" cx="111.1" cy="86.5" r="2.1"/>
					<circle class="st8" cx="123.4" cy="86.5" r="2.1"/>
				</g>
				<g>
					<circle class="st8" cx="37.3" cy="75.1" r="2.1"/>
					<path class="st8" d="M51.6,75.1c0,1.1-0.9,2.1-2.1,2.1s-2.1-0.9-2.1-2.1s0.9-2.1,2.1-2.1S51.6,73.9,51.6,75.1z"/>
					<path class="st8" d="M64,75.1c0,1.1-0.9,2.1-2.1,2.1s-2.1-0.9-2.1-2.1s0.9-2.1,2.1-2.1C63,73,64,73.9,64,75.1z"/>
					<path class="st8" d="M76.3,75.1c0,1.1-0.9,2.1-2.1,2.1s-2.1-0.9-2.1-2.1S73,73,74.2,73C75.3,73,76.3,73.9,76.3,75.1z"/>
					<path class="st8" d="M88.6,75.1c0,1.1-0.9,2.1-2.1,2.1s-2.1-0.9-2.1-2.1s0.9-2.1,2.1-2.1C87.6,73,88.6,73.9,88.6,75.1z"/>
					<circle class="st8" cx="98.8" cy="75.1" r="2.1"/>
					<circle class="st8" cx="111.1" cy="75.1" r="2.1"/>
					<circle class="st8" cx="123.4" cy="75.1" r="2.1"/>
				</g>
				<g>
					<path class="st8" d="M39.3,63.6c0,1.1-0.9,2.1-2.1,2.1s-2.1-0.9-2.1-2.1s0.9-2.1,2.1-2.1S39.3,62.4,39.3,63.6z"/>
					<path class="st8" d="M51.6,63.6c0,1.1-0.9,2.1-2.1,2.1s-2.1-0.9-2.1-2.1s0.9-2.1,2.1-2.1S51.6,62.4,51.6,63.6z"/>
					<path class="st8" d="M64,63.6c0,1.1-0.9,2.1-2.1,2.1s-2.1-0.9-2.1-2.1s0.9-2.1,2.1-2.1C63,61.5,64,62.4,64,63.6z"/>
					<path class="st8" d="M76.3,63.6c0,1.1-0.9,2.1-2.1,2.1s-2.1-0.9-2.1-2.1s0.9-2.1,2.1-2.1C75.3,61.5,76.3,62.4,76.3,63.6z"/>
					<path class="st8" d="M88.6,63.6c0,1.1-0.9,2.1-2.1,2.1s-2.1-0.9-2.1-2.1s0.9-2.1,2.1-2.1S88.6,62.4,88.6,63.6z"/>
					<path class="st8" d="M100.9,63.6c0,1.1-0.9,2.1-2.1,2.1s-2.1-0.9-2.1-2.1s0.9-2.1,2.1-2.1S100.9,62.4,100.9,63.6z"/>
					<path class="st8" d="M113.2,63.6c0,1.1-0.9,2.1-2.1,2.1s-2.1-0.9-2.1-2.1s0.9-2.1,2.1-2.1S113.2,62.4,113.2,63.6z"/>
					<path class="st8" d="M125.5,63.6c0,1.1-0.9,2.1-2.1,2.1s-2.1-0.9-2.1-2.1s0.9-2.1,2.1-2.1S125.5,62.4,125.5,63.6z"/>
				</g>
			</g>
		</g>
	</g>
	<path class="st2" d="M89.6,110.2l12.3-27.1c0.5-1,1.4-1.8,2.5-2.1l49.9-13.7c0.8-0.2,2.6,1.9,2.2,2.6l-18.1,33.7
		c-0.6,1.2-1.6,2.1-2.8,2.6l-46.9,17.8L89.6,110.2z"/>
	<path class="st9" d="M90.5,112.2l12.3-27.1c0.5-1,1.4-1.8,2.5-2.1l49.9-13.7c0.8-0.2,1.6,0.6,1.2,1.4l-17.1,34.9
		c-0.6,1.2-1.6,2.1-2.8,2.6l-46.9,17.8L90.5,112.2z"/>
	<path class="st0" d="M102.6,118.6c0,0,1,2.4-4,6.9c-5,4.6-12.5,1.6-12.5,1.6l-19.9,15.1c-2.8,2.1-6.2,3.2-9.6,3.2
		c-2.5,0-5-0.6-7.4-1.8c-4.3-2.2-7.3-6.2-8.3-11l-0.1-0.7l-1.3-6.3l10.6-6.2l8.5-5l0.3,1.6l1.3,7.3l21.7-10.6c0,0,4.4-7,6.4-9.5
		c2.1-2.5,4.4-2.9,5.2-1.3c0.8,1.6-4,8.2-4,8.2s1.7-0.1,7-2c5.2-1.8,8.6-5.6,10-4.4c1.4,1.1,0.6,4.4-1.3,7
		C105.8,115.3,102.6,118.6,102.6,118.6z"/>
	<polygon class="st1" points="59,116.1 40.9,132 39.6,125.7 50.2,119.5 58.7,114.5 	"/>
	<path class="st10" d="M86,64.1c-0.8,4.7-3.5,9.4-10.6,10.2c-5.6,0.6-9.5-1.1-12.2-3.4c-1.2-1.1-2.2-2.3-3-3.4
		c-0.7-1.1-1.3-2.1-1.6-3l3.5-1.6l2.5,0.7h17.6l2.2,0.3C84.9,63.9,85.4,64,86,64.1z"/>
	<path class="st0" d="M75.9,71.1C66.1,72.2,62,62.9,62,62.9l2-0.9c0,0,0.3-7.9-0.4-12.4l2.8,0.7l13.9,3.6c-1.3,3-1,7.2-0.8,8.5
		c0,0.3,0,0.4,0,0.4l2.5,0.7C82.1,63.6,82.5,70.4,75.9,71.1z"/>
	<path class="st1" d="M79.5,62.5c-5.6,0.1-12.6-1.8-14.8-9.1c-0.5-1.6,0.2-2.6,1.7-3.1l13.9,3.6C79,56.9,79.4,61.1,79.5,62.5z"/>
	<path class="st3" d="M61.3,44.7l-5-6.2c-2.6-3.2-2.3-7.9,0.6-10.8l0,0l0,0c-2.7-6.5,1.1-13.9,8-15.5l5.1-1.1
		c0.9-0.2,1.8-0.6,2.5-1.1l5-3.6c1.2-0.9,2.8-0.9,4.1-0.1l0,0c1.6,1,2.2,3.1,1.3,4.8l-1.5,2.9c-0.2,0.3,0.2,0.7,0.5,0.5l9-5.6
		c1.1-0.7,2.7-0.5,3.6,0.5l0,0c0.9,1,1,2.4,0.2,3.5l-6.2,8.6c-0.2,0.3,0.1,0.7,0.4,0.6l1.5-0.5c1.5-0.5,3.3,0.1,4.1,1.5l0,0
		c0.8,1.3,0.6,3-0.4,4.2c-3,3.1-8.5,9.4-9.2,13C83.9,45,61.3,44.7,61.3,44.7z"/>
	<path class="st0" d="M85.6,35c-0.2,1-0.3,2.4-0.3,4.5c0,1.4,0.3,3.7,0.3,6.2c0,1.8-0.1,3.6-0.5,5.4c-0.9,4.1-3.3,7.5-9.4,7.5
		c-12.5,0-13.8-12.4-13.8-12.4s-0.3,3-3.1,1.6c-2.1-1-2.8-5.8-0.4-7c1.4-0.7,2.9,0.2,3.9,1.1c0.4,0.4,1.1,0,1-0.5l-0.5-5.9
		c3.4,1,15.7-2.5,20.5-7.2c0.1,1.3,1,2.7,1.7,3.8C85.5,32.9,85.8,34,85.6,35z"/>
	<g>
		<path class="st11" d="M76.8,48.6l1.1-0.7c0.8-0.4,1.1-1.4,0.7-2.2l-1.8-4.2"/>
		<path class="st12" d="M72.7,43.6c0,0.6-0.4,1-0.8,1s-0.8-0.5-0.8-1s0.4-1,0.8-1C72.4,42.6,72.7,43,72.7,43.6z"/>
		<path class="st12" d="M82.3,43c0,0.6-0.4,1-0.8,1s-0.8-0.5-0.8-1s0.4-1,0.8-1C82,42,82.3,42.4,82.3,43z"/>
		<path class="st13" d="M68,40.2c0,0,1.7-2.5,5-1.4"/>
		<path class="st13" d="M84,38.9c0,0-2-2.2-5.2-0.2"/>
	</g>
	<path class="st10" d="M73,51.1l4.8,0.2c0,0-0.2,2.5-2.5,2.3C72.8,53.4,73,51.1,73,51.1z"/>
	<path class="st11" d="M58.1,43.2c1.4-0.9,2.7,0.2,2.4,2.4"/>
	<g>
		<path class="st14" d="M72.3,48.3c0,1.6-1.3,2.8-2.8,2.8s-2.8-1.3-2.8-2.8s1.3-2.8,2.8-2.8C71,45.5,72.3,46.8,72.3,48.3z"/>
		<path class="st14" d="M85.6,45.7c0,1.8-0.1,3.6-0.5,5.4c-0.2,0-0.4,0.1-0.6,0.1c-1.5,0-2.8-1.3-2.8-2.8c0-1.5,1.3-2.8,2.8-2.8
			C85,45.5,85.3,45.6,85.6,45.7z"/>
	</g>
	<line class="st11" x1="60.3" y1="123.4" x2="52.3" y2="127.4"/>
	<path class="st11" d="M105.4,110.8c-1.7,3.5-11.4,4.8-11.4,4.8"/>
	<path class="st11" d="M102.6,118.6c-3.9,4.2-10.3,3.1-10.3,3.1"/>
	<line class="st15" x1="58.7" y1="114.5" x2="55.4" y2="90.4"/>
	<line class="st15" x1="99.7" y1="133.7" x2="75.4" y2="154.2"/>
	<g>
		<path class="st4" d="M54.5,321.5l-22.7-2.9c-1.5-0.2-2.6-1.6-2.4-3.2l0.5-3.6c0.2-1.5,1.6-2.6,3.1-2.4l22.7,2.9
			c1.5,0.2,2.6,1.6,2.4,3.2l-0.5,3.6C57.4,320.6,56,321.7,54.5,321.5z"/>
		<line class="st15" x1="32.5" y1="309.4" x2="56.1" y2="312.4"/>
	</g>
	<g>
		<path class="st4" d="M147.9,316.8l-22,6.4c-1.5,0.4-3-0.4-3.5-1.9l-1-3.5c-0.4-1.5,0.4-3,1.9-3.5l22-6.4c1.5-0.4,3,0.4,3.5,1.9
			l1,3.5C150.2,314.8,149.4,316.3,147.9,316.8z"/>
		<line class="st15" x1="122.9" y1="314.5" x2="145.7" y2="307.8"/>
	</g>
	<g>
		<path class="st8" d="M105.5,87.1c1.3-1,3-1,3.8,0c0.7,1,0.3,2.6-1.1,3.6s-3,1-3.8,0C103.7,89.7,104.2,88.1,105.5,87.1z"/>
		<path class="st8" d="M106.2,88c0.7-0.5,1.5-0.5,1.9,0s0.1,1.3-0.5,1.9c-0.7,0.5-1.5,0.5-1.9,0C105.3,89.3,105.5,88.5,106.2,88z"/>
	</g>
	<line class="st15" x1="87.5" y1="181.4" x2="81.2" y2="210.7"/>
</g>
</svg>
